<svg xmlns="http://www.w3.org/2000/svg" xmlns:xlink="http://www.w3.org/1999/xlink">
	<!-- GLOBAL SYMBOL -->
	<symbol id="menu-1-line-left" viewBox="0 0 70 3">
		<path  d="M0.063,2.224c-0.047,0.007 0.001,-1.158 0.006,-1.153c0.012,0.011 1.289,-0.881 1.242,-0.851c-0.046,0.03 10.743,0 10.743,0c0,0 2.6,0.205 7.443,0.136c4.844,-0.068 12.03,0.308 17.021,0.29c4.962,-0.017 6.168,-0.247 12.114,-0.327c5.945,-0.08 5.635,0.066 9.553,0.156c3.919,0.091 7.354,0.264 7.354,0.264l3.509,0.045l0.007,1.308c0,0 -0.618,0.074 -3.776,0.234c-3.091,0.157 -8.781,0.32 -10.664,0.06c0,0 -6.862,-0.169 -10.67,-0.232c-3.807,-0.063 -8.273,-0.162 -11.941,-0.158c-3.669,0.003 -8.646,0.247 -10.939,-0.025c-2.341,-0.279 -5.282,-0.217 -7.375,0.101c-2.098,0.32 -13.627,0.152 -13.627,0.152Z"/>
	</symbol>
	<symbol id="menu-1-line-right" viewBox="0 0 70 3">
		<path d="M69.112,2.176c0.047,0.006 -0.001,-1.158 -0.006,-1.153c-0.012,0.011 -1.289,-0.882 -1.242,-0.851c0.046,0.029 -10.743,0 -10.743,0c0,0 -2.6,0.205 -7.443,0.136c-4.844,-0.069 -12.03,0.307 -17.021,0.29c-4.962,-0.017 -6.168,-0.247 -12.114,-0.327c-5.945,-0.08 -5.635,0.066 -9.553,0.156c-3.919,0.091 -7.354,0.264 -7.354,0.264l-3.509,0.045l-0.007,1.308c0,0 0.618,0.073 3.776,0.234c3.091,0.157 8.781,0.32 10.664,0.06c0,0 6.862,-0.169 10.67,-0.232c3.807,-0.063 8.273,-0.162 11.941,-0.159c3.669,0.004 8.646,0.248 10.938,-0.025c2.342,-0.278 5.283,-0.217 7.376,0.102c2.098,0.319 13.627,0.152 13.627,0.152Z"/>
	</symbol>
	<symbol id="menu-2-line-left" viewBox="0 0 79 5">
		<path  d="M78.912,2.029c0,0 -7.418,-0.279 -10.209,-1.799c-0.15,-0.081 -68.59,1.843 -68.59,1.843c0,0 68.357,1.972 68.507,1.893c2.882,-1.516 10.292,-1.937 10.292,-1.937Z"/>
	</symbol>
	<symbol id="menu-2-line-right" viewBox="0 0 79 5">
		<path d="M0.203,2.029c0,0 7.419,-0.279 10.21,-1.799c0.149,-0.081 68.59,1.843 68.59,1.843c0,0 -68.358,1.972 -68.507,1.893c-2.882,-1.516 -10.293,-1.937 -10.293,-1.937Z"/>
	</symbol>
	<symbol id="menu-3-line-left" viewBox="0 0 83 4">
		<path  d="M0.016,0.005c0,0 0.344,1.164 3.017,1.726c1.831,0.384 78.221,0.041 78.221,0.041l0.779,1.593c0,0 -76.673,0.293 -79.15,-0.186c-2.478,-0.479 -2.867,-3.174 -2.867,-3.174Z"/>
	</symbol>
	<symbol id="menu-3-line-right" viewBox="0 0 83 4">
		<path d="M82.182,0.005c0,0 -0.344,1.164 -3.017,1.726c-1.831,0.384 -78.221,0.041 -78.221,0.041l-0.779,1.593c0,0 76.673,0.293 79.15,-0.186c2.478,-0.479 2.867,-3.174 2.867,-3.174Z"/>
	</symbol>
	<symbol id="menu-4-line-left" viewBox="0 0 94 4">
		<path class="menu4-linearGradient" d="M0.128,0.128c0,0 1.907,-0.11 3.113,0.082c1.206,0.192 2.662,0.347 3.509,0.149c0.847,-0.197 1.842,-0.3 3.212,-0.302c0,0 0,0 0,0c1.37,-0.002 4.561,0.313 5.68,0.381c1.119,0.067 4.324,0.05 6.208,-0.083c1.884,-0.134 3.466,-0.257 4.309,-0.257c0.843,0.001 5.503,0.061 6.694,0.21c1.19,0.148 4.246,0.201 6.013,0.361c1.767,0.16 12.43,0.218 13.739,0.014c1.309,-0.204 4.049,-0.277 5.356,-0.401c1.307,-0.124 2.969,-0.138 4.166,-0.125c1.198,0.013 7.568,-0.105 8.746,0.023c1.178,0.128 3.337,0.189 4.393,0.157c1.057,-0.033 5.893,0.21 6.767,0.116c0.951,-0.015 5.125,-0.097 6.037,-0.101c0.912,-0.003 3.433,0.198 3.433,0.198l1.866,0.484c0,0 -3.117,0.012 -3.472,0.126c-0.355,0.115 3.352,0.559 3.352,0.559c0,0 -3.997,0.312 -5.299,0.313c-1.302,0.001 -4.567,-0.087 -5.389,0.122c-0.821,0.209 -3.272,0.304 -4.709,0.366c-1.436,0.062 -7.159,-0.223 -10.67,-0.157c-3.511,0.066 -6.727,0.231 -9.896,0.488c-3.168,0.256 -5.563,0.368 -7.479,0.371c-1.917,0.004 -6.201,0.073 -7.752,0.006c-1.55,-0.067 -5.144,-0.335 -6.802,-0.377c-1.657,-0.043 -5.473,-0.279 -8.58,-0.326c-3.106,-0.047 -5.581,0.307 -6.884,0.326c-1.303,0.018 -3.178,0.117 -4.147,0c-0.968,-0.118 -2.553,-0.314 -4.615,-0.342c-2.063,-0.028 -2.841,0.092 -4.234,0.342c-1.393,0.249 -5.648,0.24 -5.648,0.24l-0.889,-1.062l-0.128,-1.901Z"/>
	</symbol>
	<symbol id="menu-4-line-right" viewBox="0 0 94 4">
		<path d="M93.462,0.128c0,0 -1.906,-0.11 -3.113,0.082c-1.206,0.192 -2.662,0.347 -3.509,0.149c-0.846,-0.197 -1.842,-0.3 -3.212,-0.302c0,0 0,0 0,0c-1.37,-0.002 -4.561,0.313 -5.68,0.381c-1.118,0.067 -4.323,0.05 -6.207,-0.083c-1.884,-0.134 -3.466,-0.257 -4.309,-0.257c-0.843,0.001 -5.504,0.061 -6.694,0.21c-1.19,0.148 -4.246,0.201 -6.013,0.361c-1.767,0.16 -12.43,0.218 -13.739,0.014c-1.309,-0.204 -4.05,-0.277 -5.357,-0.401c-1.307,-0.124 -2.968,-0.138 -4.165,-0.125c-1.198,0.013 -7.568,-0.105 -8.746,0.023c-1.178,0.128 -3.337,0.189 -4.394,0.157c-1.056,-0.033 -5.892,0.21 -6.767,0.116c-0.95,-0.015 -5.124,-0.097 -6.036,-0.101c-0.912,-0.003 -3.433,0.198 -3.433,0.198l-1.866,0.484c0,0 3.117,0.012 3.472,0.126c0.355,0.115 -3.352,0.559 -3.352,0.559c0,0 3.997,0.312 5.299,0.313c1.301,0.001 4.567,-0.087 5.388,0.122c0.822,0.209 3.273,0.304 4.709,0.366c1.437,0.062 7.16,-0.223 10.671,-0.157c3.511,0.066 6.727,0.231 9.895,0.488c3.169,0.256 5.563,0.368 7.48,0.371c1.917,0.004 6.201,0.073 7.751,0.006c1.551,-0.067 5.145,-0.335 6.803,-0.377c1.657,-0.043 5.473,-0.279 8.579,-0.326c3.107,-0.047 5.582,0.307 6.885,0.326c1.303,0.018 3.178,0.117 4.146,0c0.969,-0.118 2.554,-0.314 4.616,-0.342c2.062,-0.028 2.841,0.092 4.233,0.342c1.393,0.249 5.649,0.24 5.649,0.24l0.889,-1.062l0.127,-1.901Z"/>
	</symbol>
</svg>

